Coordinates
version=1
nRows=14
nColumns=24
inDegrees=yes

Units are S.I. units (second, meters, Newtons, ...)
Angles are in degrees.

endheader
time	pelvis_tilt	pelvis_list	pelvis_rotation	pelvis_tx	pelvis_ty	pelvis_tz	hip_flexion_r	hip_adduction_r	hip_rotation_r	knee_angle_r	ankle_angle_r	subtalar_angle_r	mtp_angle_r	hip_flexion_l	hip_adduction_l	hip_rotation_l	knee_angle_l	ankle_angle_l	subtalar_angle_l	mtp_angle_l	lumbar_extension	lumbar_bending	lumbar_rotation
      4.91000000	     37.22771840	      0.60928368	      2.55961893	      0.19489867	      0.67452231	     -0.25812968	    -31.71729162	      3.41449776	     -5.23318792	    -12.99438359	     18.41681209	      4.16652159	      0.00000000	    -18.70073824	     -4.66299977	    -10.97976545	    -64.57481616	     13.41362871	     -1.33354073	      0.00000000	    -66.23807308	      3.32941968	     -2.50616991
      4.91500000	     37.27147147	      0.62231691	      2.27382069	      0.19957541	      0.67474063	     -0.25806676	    -32.31867824	      3.25220060	     -5.16839177	    -12.79290312	     18.78318035	      4.43317079	      0.00000000	    -18.25030375	     -4.56691222	    -11.59461269	    -63.69611777	     14.07099370	     -1.14560777	      0.00000000	    -66.32890758	      3.10598996	     -2.27848525
      4.92000000	     37.21407940	      0.73755532	      2.15812380	      0.20419830	      0.67483399	     -0.25801796	    -32.79323345	      3.10155412	     -5.27886721	    -12.63150205	     19.10028630	      4.51575043	      0.00000000	    -17.63544691	     -4.43011714	    -11.99183652	    -62.79114125	     14.67084695	     -0.87081576	      0.00000000	    -66.33277887	      2.92256410	     -2.22972179
      4.92500000	     37.18995087	      0.82554500	      2.00952205	      0.20884674	      0.67489615	     -0.25798192	    -33.29559677	      2.94938065	     -5.36871038	    -12.48700737	     19.47199557	      4.71565303	      0.00000000	    -17.10279781	     -4.30129740	    -12.42378002	    -61.77273761	     15.18973320	     -0.62311178	      0.00000000	    -66.36137247	      2.73352570	     -2.14547818
      4.93000000	     37.18258898	      0.93219751	      1.85810104	      0.21352778	      0.67492543	     -0.25796543	    -33.81260592	      2.77692839	     -5.44863010	    -12.35763666	     19.85335584	      4.90516524	      0.00000000	    -16.62561535	     -4.13841261	    -12.83921369	    -60.64428449	     15.62354076	     -0.41440595	      0.00000000	    -66.40121442	      2.52798968	     -2.06426596
      4.93500000	     37.32296709	      1.02101167	      1.62224856	      0.21820181	      0.67500319	     -0.25793490	    -34.49587259	      2.56828573	     -5.46734046	    -12.21209005	     20.24378413	      5.15346836	      0.00000000	    -16.38502423	     -3.95428291	    -13.34260471	    -59.36085392	     15.96862697	     -0.33128984	      0.00000000	    -66.59332048	      2.27669971	     -1.91027667
      4.94000000	     37.24548748	      1.15443074	      1.59497669	      0.22288596	      0.67487975	     -0.25794647	    -34.91485956	      2.45753330	     -5.58722435	    -12.13281787	     20.60098813	      5.15762837	      0.00000000	    -15.83448782	     -3.79104054	    -13.59155872	    -58.10578999	     16.22068869	     -0.16527297	      0.00000000	    -66.55681979	      2.13546594	     -1.90909414
      4.94500000	     37.19120499	      1.29353927	      1.54422311	      0.22756754	      0.67472933	     -0.25803095	    -35.35276381	      2.31326128	     -5.69883670	    -12.06696039	     20.98144726	      5.24649861	      0.00000000	    -15.34836253	     -3.58378063	    -13.83384467	    -56.74461071	     16.41587478	     -0.08061209	      0.00000000	    -66.55824611	      1.99539562	     -1.88082846
      4.95000000	     37.25019706	      1.43702648	      1.40878503	      0.23230930	      0.67461797	     -0.25797296	    -35.93285573	      2.12366884	     -5.81935399	    -11.97289837	     21.45882062	      5.45971760	      0.00000000	    -15.06553122	     -3.36524994	    -14.18983063	    -55.24217319	     16.43370972	     -0.05874982	      0.00000000	    -66.64944373	      1.76217755	     -1.91875956
      4.95500000	     37.16881831	      1.49371018	      1.49293402	      0.23696340	      0.67430203	     -0.25815878	    -36.33502291	      2.14799567	     -5.91715402	    -11.90890646	     21.76666351	      5.36230880	      0.00000000	    -14.54642547	     -3.26246070	    -14.26796351	    -53.81097627	     16.56313616	     -0.05845010	      0.00000000	    -66.62576048	      1.77353004	     -1.79200706
      4.96000000	     37.38157401	      1.74278315	      1.31333353	      0.24177756	      0.67424138	     -0.25816781	    -37.10054580	      1.82808206	     -6.05186714	    -11.82422061	     22.24259700	      5.67313540	      0.00000000	    -14.55158460	     -2.86483830	    -14.56916840	    -52.03726135	     16.42798285	     -0.12547505	      0.00000000	    -66.85462011	      1.46262974	     -1.88544597
      4.96500000	     37.40333653	      1.91627729	      1.31887508	      0.24654176	      0.67396672	     -0.25823072	    -37.64007126	      1.71148892	     -6.17849621	    -11.75442001	     22.62347099	      5.65319219	      0.00000000	    -14.26982548	     -2.60823820	    -14.67703940	    -50.35213276	     16.28642751	     -0.10919110	      0.00000000	    -66.90963161	      1.31870602	     -1.93654416
      4.97000000	     37.32678877	      2.06980473	      1.37168419	      0.25129320	      0.67359441	     -0.25832217	    -38.05393954	      1.64213210	     -6.30562352	    -11.71714790	     22.99910862	      5.61262420	      0.00000000	    -13.87355624	     -2.37547668	    -14.71079596	    -48.65205124	     16.03949158	     -0.07246210	      0.00000000	    -66.87447613	      1.21748256	     -1.99579600
      4.97500000	     37.40015579	      2.26547055	      1.41604178	      0.25609254	      0.67326261	     -0.25848514	    -38.67497322	      1.52669346	     -6.52911301	    -11.62197339	     23.39404151	      5.69738256	      0.00000000	    -13.71019324	     -2.06666360	    -14.70937665	    -46.82507893	     15.79583851	     -0.10318019	      0.00000000	    -66.97683877	      1.09888112	     -2.04061778
